# xmcd
#
# Track frame offsets:
#	150
#	12198
#	29075
#	43608
#	53797
#	67794
#	81334
#	95175
#	108082
#	121557
#	134355
#	148130
#	162161
#	174143
#	185485
#	199789
#	211973
#	223591
#
# Disc length: 3183 seconds
#
# Revision: 1
# Processed by: cddbd v1.5.2PL0 Copyright (c) Steve Scherf et al.
# Submitted via: audiograbber 1.83.01
#
DISCID=fa0c6d12
DTITLE=John Lee Hooker - Masters of Music [Disc 5]
DYEAR=1900
DGENRE=
TTITLE0=Ground Hog
TTITLE1=Goin Mad Blues
TTITLE2=How long must I be your Slave
TTITLE3=Hey Boogie
TTITLE4=Talkin Boogie
TTITLE5=Wandering Blues
TTITLE6=Must I Wait till your Man has Gone
TTITLE7=Rock House Boogie
TTITLE8=Drifting from Door to Door
TTITLE9=She Shot me Down
TTITLE10=Tuesday Evening Blues
TTITLE11=I'm in the Mood
TTITLE12=Let your Daddy Ride
TTITLE13=Blue Monday
TTITLE14=Mean Old Train
TTITLE15=Burning Hell
TTITLE16=Queen Bee
TTITLE17=Nothin but Trouble
EXTD=
EXTT0=
EXTT1=
EXTT2=
EXTT3=
EXTT4=
EXTT5=
EXTT6=
EXTT7=
EXTT8=
EXTT9=
EXTT10=
EXTT11=
EXTT12=
EXTT13=
EXTT14=
EXTT15=
EXTT16=
EXTT17=
PLAYORDER=
